<svg xmlns="http://www.w3.org/2000/svg" xmlns:xlink="http://www.w3.org/1999/xlink" viewBox="0 0 448 512"><path d="M384 308l24-62c4-11-4-22-15-22h-59c11-19 18-41 18-64 39-8 64-19 64-32s-27-25-70-33c-9-33-27-66-41-83-9-12-26-15-39-9l-28 14c-9 5-19 5-28 0L182 3c-14-6-30-3-39 9-14 17-32 50-41 83-43 8-70 20-70 33s25 24 64 32c0 23 7 45 18 64H56c-11 0-19 12-14 22l25 61C27 330 0 373 0 422v45c0 25 20 45 45 45h358c25 0 45-20 45-45v-45c0-48-26-90-64-114zM176 480l-42-192 50 32 24 40-32 120zm96 0l-32-120 24-40 50-32-42 192zm42-298c-4 11-7 24-17 33s-48 22-64-25c-3-8-15-8-18 0-17 50-56 32-64 25-10-9-13-22-17-33 0-3-6-6-6-6v-11a751 751 0 00192 0v11s-5 3-6 6z" fill="#ababab"/><image width="100" height="96" xlink:href="../Desktop/Screen Shot 2020-08-02 at 2.31.14 PM.png" transform="matrix(.5 0 0 .5 497 377)" overflow="visible"/></svg>